<?xml version="1.0" encoding="utf-8"?><!--Generator: Adobe Illustrator 16.0.3, SVG Export Plug-In . SVG Version: 6.00 Build 0)--><!DOCTYPE svg PUBLIC "-//W3C//DTD SVG 1.1//EN" "http://www.w3.org/Graphics/SVG/1.1/DTD/svg11.dtd"><svg version="1.1" id="Layer_1" xmlns="http://www.w3.org/2000/svg" xmlns:xlink="http://www.w3.org/1999/xlink" x="0px" y="0px" width="350px" height="43px" viewBox="0 0 350 43" style="enable-background:new 0 0 350 43;" xml:space="preserve"><style type="text/css"><![CDATA[
	.st0{fill:url(#SVGID_1_);}
	.st1{fill:url(#SVGID_2_);}
	.st2{fill:url(#SVGID_3_);}
	.st3{fill:url(#SVGID_4_);}
	.st4{fill:url(#SVGID_5_);}
	.st5{fill:url(#SVGID_6_);}
	.st6{fill:url(#SVGID_7_);}
	.st7{fill:url(#SVGID_8_);}
	.st8{fill:url(#SVGID_9_);}
	.st9{fill:#FFFFFF;}
	.st10{fill:url(#SVGID_10_);}
	.st11{fill:url(#SVGID_11_);}
	.st12{fill:url(#SVGID_12_);}
	.st13{fill:url(#SVGID_13_);}
	.st14{fill:url(#SVGID_14_);}
	.st15{fill:url(#SVGID_15_);}
]]></style><g><g><linearGradient id="SVGID_1_" gradientUnits="userSpaceOnUse" x1="25.25" y1="31.1025" x2="25.25" y2="40.7019"><stop offset="0" style="stop-color:#000000;stop-opacity:0.5"/><stop offset="1" style="stop-color:#000000;stop-opacity:0"/></linearGradient><path class="st0" d="M47.5,34.9l2.3-0.101l-1.7-2.2H44c0,0-0.1-1.1,2.1-1.1v-3.7H4.6v3.7c2,0,1.7,1.1,1.7,1.1H2.2l-1.7,2.2
			L2.8,34.9c0,0-2.8,4.3-2.8,5c0,2.6,5.3,3,7.1,3c2,0.1,6.3,0.1,9.3,0c1.9,0,4.6-0.2,4.6-0.2L20.8,38c-0.7,0.1-2.9,0.2-4.5,0.2
			c-1.6,0-3.8-0.601-3.8-0.601c0-0.3-0.2-1.199,0-1.6c0.2-0.3,1.4-0.6,1.4-0.6h7.4V33.1h-5.6c-3.5,0-3.9-1-3.9-1.6h27
			c0,0.6-0.5,1.6-4,1.6h-5.6v2.4h7.4c0,0,1.1,0.2,1.4,0.6c0.2,0.301,0,1.2,0,1.601c0,0-2.2,0.6-3.8,0.6c-1.6,0-3.8-0.1-4.5-0.2
			l-0.2,4.7c0,0,1.5,0.2,4.6,0.2h9.3c1.8,0,7.1-0.3,7.1-3C50.3,39.1,47.5,34.9,47.5,34.9z"/></g></g><radialGradient id="SVGID_2_" cx="653.0996" cy="3560.8203" r="8.4347" gradientTransform="matrix(1 0 0 0.3026 -615.6797 -1051.6428)" gradientUnits="userSpaceOnUse"><stop offset="0.4" style="stop-color:#8C8C8C"/><stop offset="1" style="stop-color:#FFFFFF"/></radialGradient><path class="st1" d="M35.3,23.801c1,1.899,2.2,2.699,2.2,2.699l-9.9,0.011V23.8L35.3,23.801z"/><linearGradient id="SVGID_3_" gradientUnits="userSpaceOnUse" x1="657.4258" y1="1118.2754" x2="660.5258" y2="1121.4755" gradientTransform="matrix(1 0 0 1 -615.6797 -1095.8984)"><stop offset="0" style="stop-color:#8C8C8C"/><stop offset="1" style="stop-color:#FFFFFF"/></linearGradient><path class="st2" d="M41.5,20.8c0-0.1,0.6,2.8,4,3.8l0.6,2.801C41.8,26,41.5,21.7,41.5,20.8z"/><radialGradient id="SVGID_4_" cx="658.6064" cy="2442.0371" r="3.6192" gradientTransform="matrix(1 0 0 0.4422 -615.6797 -1066.5081)" gradientUnits="userSpaceOnUse"><stop offset="0.4" style="stop-color:#A6A6A6"/><stop offset="1" style="stop-color:#FFFFFF"/></radialGradient><path class="st3" d="M43.4,12.2H46l0.6,2.4h-3.8C42.9,14.5,43.2,13.5,43.4,12.2z"/><linearGradient id="SVGID_5_" gradientUnits="userSpaceOnUse" x1="651.4863" y1="1105.4746" x2="650.6463" y2="1108.0999" gradientTransform="matrix(1 0 0 1 -615.6797 -1095.8984)"><stop offset="0" style="stop-color:#8C8C8C"/><stop offset="0.8" style="stop-color:#8C8C8C"/></linearGradient><path class="st4" d="M35.914,11.74c-0.3,1.7-1.014,2.86-1.014,2.86l-0.3-2.4c0,0,0.987-3.632,1.187-5.333l0.478,0.096
	C36.258,8.175,36.214,9.94,35.914,11.74z"/><radialGradient id="SVGID_6_" cx="650" cy="3064.585" r="6.0997" gradientTransform="matrix(1 0 0 0.3508 -615.6797 -1061.6873)" gradientUnits="userSpaceOnUse"><stop offset="0.4" style="stop-color:#8C8C8C"/><stop offset="1" style="stop-color:#FFFFFF"/></radialGradient><polygon class="st5" points="34.6,12.2 34.9,14.6 27.6,14.6 27.6,12.2 "/><linearGradient id="SVGID_7_" gradientUnits="userSpaceOnUse" x1="643.1006" y1="1100.1992" x2="659.2998" y2="1100.1992" gradientTransform="matrix(1 0 0 1 -615.6797 -1095.8984)"><stop offset="0.2" style="stop-color:#FFFFFF"/><stop offset="1" style="stop-color:#BFBFBF"/></linearGradient><path class="st6" d="M27.5,2.1V0.6c0,0,2.5-0.6,5.2-0.6c2.7,0,5.9,0.5,8,2.1c2,1.6,2.4,3.4,3,6.5L27.5,2.1z"/><linearGradient id="SVGID_8_" gradientUnits="userSpaceOnUse" x1="652.7305" y1="1104.2998" x2="652.7305" y2="1123.2998" gradientTransform="matrix(1 0 0 1 -615.6797 -1095.8984)"><stop offset="0" style="stop-color:#1F4199"/><stop offset="1" style="stop-color:#2E3281"/></linearGradient><path class="st7" d="M27.6,2.1c0,0,1.6-0.6,5.2-0.6c3.5,0,5.9,0.7,7.6,1.7c1.6,1,3.4,3,3.4,6.4c0,2.2-0.8,5-0.8,5h3.6l-0.1,4.2h-4.8
	c0,0-0.1,1.1-0.1,1.9c0,0.9,0.3,5.2,4.6,6.6l-0.1,4.2c0,0-3.6-0.6-6.2-2.2c-0.1,0.101-2.7,1.3-4.6,1.601c0,0-2.8,0.699-7.7,0.6v-5
	h9.8c0,0-3.5-2.5-3.5-7.9l-6.3,0.1v-4.1h7.3c0,0,0.6-2.2,0.8-3.3c0.2-1,0.3-3,0.3-4.1c0,0-1.4-0.6-3.3-0.6c-1.8,0-4.4,0.3-5.2,0.6
	V2.1H27.6z"/><radialGradient id="SVGID_9_" cx="-934.001" cy="3560.7939" r="8.4" gradientTransform="matrix(-1 0 0 0.3026 -920.6797 -1051.6428)" gradientUnits="userSpaceOnUse"><stop offset="0.4" style="stop-color:#8C8C8C"/><stop offset="1" style="stop-color:#FFFFFF"/></radialGradient><path class="st8" d="M15.6,23.801c-1,1.899-2.3,2.699-2.3,2.699h9.8v-2.699H15.6z"/><linearGradient id="SVGID_10_" gradientUnits="userSpaceOnUse" x1="-823.625" y1="1118.2246" x2="-820.4246" y2="1121.425" gradientTransform="matrix(-1 0 0 1 -814.6797 -1095.8984)"><stop offset="0" style="stop-color:#8C8C8C"/><stop offset="1" style="stop-color:#FFFFFF"/></linearGradient><path class="st10" d="M9.1,20.8c0-0.1-0.6,2.8-4.1,3.8L4.4,27.4C8.9,26,9.1,21.7,9.1,20.8z"/><radialGradient id="SVGID_11_" cx="-646.4829" cy="2442.1367" r="3.5517" gradientTransform="matrix(-1 0 0 0.4422 -638.6797 -1066.5081)" gradientUnits="userSpaceOnUse"><stop offset="0.4" style="stop-color:#A6A6A6"/><stop offset="1" style="stop-color:#FFFFFF"/></radialGradient><path class="st11" d="M7.1,12.2H4.7l-0.6,2.4h3.6L7.1,12.2z"/><linearGradient id="SVGID_12_" gradientUnits="userSpaceOnUse" x1="-845.834" y1="1105.583" x2="-846.6559" y2="1108.1517" gradientTransform="matrix(-1 0 0 1 -830.6797 -1095.8984)"><stop offset="0" style="stop-color:#8C8C8C"/><stop offset="0.8" style="stop-color:#8C8C8C"/></linearGradient><path class="st12" d="M15.079,11.559c0.2,1,0.921,3.041,0.921,3.041l0.3-2.4c0,0-1.054-3.494-1.254-5.194L14.726,7.15
	C14.774,8.192,14.878,10.459,15.079,11.559z"/><radialGradient id="SVGID_13_" cx="-847.2002" cy="3078.3291" r="6.1" gradientTransform="matrix(-1 0 0 0.3492 -830.6797 -1061.6021)" gradientUnits="userSpaceOnUse"><stop offset="0.4" style="stop-color:#8C8C8C"/><stop offset="1" style="stop-color:#FFFFFF"/></radialGradient><polygon class="st13" points="16.3,12.2 16,14.6 23.2,14.6 23.2,12.2 "/><linearGradient id="SVGID_14_" gradientUnits="userSpaceOnUse" x1="622.7529" y1="1100.1992" x2="638.9989" y2="1100.1992" gradientTransform="matrix(1 0 0 1 -615.6797 -1095.8984)"><stop offset="0" style="stop-color:#D9D9D9"/><stop offset="0.8" style="stop-color:#FFFFFF"/></linearGradient><path class="st14" d="M23.2,2.1V0.6c0,0-2.6-0.6-5.3-0.6c-2.7,0-5.9,0.5-8,2.1c-2,1.6-2.248,3.4-2.848,6.5L23.2,2.1z"/><linearGradient id="SVGID_15_" gradientUnits="userSpaceOnUse" x1="629.3301" y1="1104.5996" x2="629.3301" y2="1123.5996" gradientTransform="matrix(1 0 0 1 -615.6797 -1095.8984)"><stop offset="0" style="stop-color:#93CE4E"/><stop offset="1" style="stop-color:#72A13D"/></linearGradient><path class="st15" d="M23,2.1c0,0-1.7-0.6-5.3-0.6c-3.5,0-5.9,0.7-7.5,1.7c-1.6,1-3.4,3-3.4,6.4c0,2.2,0.8,5,0.8,5H4.1l0.1,4.2H9
	c0,0,0.1,1.1,0.1,1.9c0,0.9-0.3,5.2-4.6,6.6l0.1,4.2c0,0,3.6-0.6,6.2-2.2c0.1,0.101,2.7,1.3,4.6,1.601c0,0,2.8,0.699,7.7,0.6v-5
	h-9.6c0,0,3.5-2.5,3.5-7.9l6.2,0.1v-4.1H16c0,0-0.6-2.2-0.8-3.3c-0.2-1-0.3-3-0.3-4.1c0,0,1.4-0.6,3.2-0.6c1.9,0,4.3,0.3,5.1,0.6
	V2.1H23z"/><g><polygon class="st9" points="341.3,9.4 342.4,9.4 342.4,13.5 343.4,13.5 343.4,9.4 344.5,9.4 344.5,8.7 341.4,8.7 	"/><path class="st9" d="M349.5,8.7h-1.2l-1,3.3l-1-3.3H345c-0.2,1.6-0.3,3.2-0.3,4.8h0.899c0-1.3,0.101-2.5,0.2-3.6l1.101,3.6h0.8
		l1.1-3.6c0.101,1,0.2,2.3,0.2,3.6h1C349.8,11.9,349.7,10.3,349.5,8.7z"/><path class="st9" d="M152,8.4c-4.3,0-7,2.9-7,8.4c0,5.7,2.7,7.7,6.7,7.7c2.3,0,4.5-0.6,6.4-1.6l-0.6-2.3c-1.8,0.6-3.6,0.9-5,0.9
		c-2.2,0-3.4-1.2-3.4-4v-0.2h9.1C158.6,10.6,155.9,8.4,152,8.4z M149.1,14.8c0.1-2.2,1-3.7,2.8-3.7c1.6,0,2.4,1.2,2.4,3.7H149.1z"/><path class="st9" d="M72.9,8.4c-4.6,0-7.4,2.6-7.4,8.3c0,5.6,2.5,7.8,6.8,7.8c4.6,0,7.4-2.7,7.4-8.3C79.7,10.6,77.3,8.4,72.9,8.4z
		 M72.6,21.6c-2,0-3.1-1.1-3.1-5.5c0-3.5,1.3-4.8,3.1-4.8c1.9,0,3.1,1.1,3.1,5.5C75.7,20.3,74.4,21.6,72.6,21.6z"/><path class="st9" d="M165.6,22.5c-1.5,0-1.8-0.7-1.8-2.8v-9h4.1V8.9h-4.1V6h-1.9c-0.1,1-0.3,2-0.5,2.9h-2.5v1.8h2.5v9.6
		c0,3,0.9,4.101,3.5,4.101c1,0,2.2-0.301,3.4-0.9L168,22C166.9,22.4,166.2,22.5,165.6,22.5z"/><path class="st9" d="M60.9,21.5c-1.8,0-2.8-1.5-2.8-5.2c0-3.2,1.1-4.9,2.9-4.9c1,0,1.9,0.4,2.6,1l1.4-2c-1-1.3-2.6-2-4.6-2
		c-3.9,0-6.4,3.4-6.4,8.2c0,5.2,2.1,7.8,6.1,7.8c2.3,0,4-1,5.2-2.2l-1.2-2C63.2,21.1,62.2,21.5,60.9,21.5z"/><path class="st9" d="M127.3,8.4c-2.3,0-4.4,0.6-6.2,1.4l0.5,2.4c1.4-0.5,3.1-0.9,4.7-0.9c2,0,2.9,0.8,2.9,2.3v1.2h-1
		c-5.4,0-7.9,2.1-7.9,5.3c0,2.9,1.7,4.4,4.8,4.4c2,0,3.4-0.8,4.7-1.9l0.3,1.601h3v-11C133.1,10.3,131.2,8.4,127.3,8.4z M129.2,20.3
		c-1,0.8-2,1.3-2.9,1.3c-1.4,0-2.1-0.8-2.1-2c0-1.4,0.9-2.4,3.8-2.4h1.2V20.3z"/><path class="st9" d="M113.8,8.4c-1.5,0-3,0.8-4.3,1.9l-0.3-1.6H106V27.1h4V24.4c0.5,0.1,1.2,0.1,1.6,0.1c4.4,0,7.7-2.6,7.7-8.7
		C119.3,11.8,117.5,8.4,113.8,8.4z M111.8,21.7c-0.7,0-1.3-0.1-1.8-0.3v-8.6c1-0.9,2-1.3,2.7-1.3c1.6,0,2.5,1.7,2.5,4.9
		C115.2,20,113.8,21.7,111.8,21.7z"/><path class="st9" d="M98.6,8.4c-1.8,0-3.4,0.9-4.9,2.2c-0.6-1.3-1.8-2.2-3.7-2.2c-1.7,0-3.3,0.8-4.5,2l-0.3-1.6h-3.3v15.4h4V12.9
		c1-0.8,2-1.3,2.8-1.3c1.3,0,2,0.9,2,4.5v8h3.9V15.2c0-1.1-0.1-1.8-0.2-2.3c1-0.8,2.1-1.4,2.9-1.4c1.3,0,2,0.8,2,4.5
		c0,1.8-0.1,4.9-0.1,8h3.9c0-3.4,0.1-6.9,0.1-8.8C103.2,10.4,101.6,8.4,98.6,8.4z"/><path class="st9" d="M139.6,11.2l-0.3-2.4H136v15.4h4v-9.8c1.4-1.7,2.1-2.3,3-2.3c0.3,0,0.7,0,1.4,0.2l0.5-3.5
		c-0.5-0.2-1-0.3-1.5-0.3C142.2,8.5,141.2,9.1,139.6,11.2z"/><path class="st9" d="M288.9,21.2c-1.301,0-1.601,0.3-1.601,1.6c0,1.2,0.3,1.601,1.601,1.601c1.3,0,1.6-0.301,1.6-1.601
		C290.4,21.5,290.1,21.2,288.9,21.2z"/><path class="st9" d="M282.1,21.5c-1,0-1.399-0.5-1.399-2.1v-7.9h3.399V8.7H280.7V5.9h-3.2c-0.2,1-0.4,1.9-0.6,2.8H274.8v2.8h1.9
		v8.9c0,2.9,1.1,4,3.899,4c1.2,0,2.4-0.301,3.9-1l-0.3-2.3C283.2,21.5,282.6,21.5,282.1,21.5z"/><path class="st9" d="M298.6,22.5c-2.5,0-3.699-2-3.699-6.1c0-3.7,1.399-5.8,3.699-5.8c1.2,0,2.2,0.4,3.101,1.3l1-1.3
		c-1-1.2-2.5-1.9-4.4-1.9c-3.5,0-5.899,3.1-5.899,8.1c0,5.1,2.1,7.601,5.699,7.601c2.201,0,3.701-0.9,4.9-2.2l-0.9-1.3
		C301,22,299.9,22.5,298.6,22.5z"/><path class="st9" d="M268,8.4c-4.3,0-7,2.9-7,8.4c0,5.601,2.7,7.601,6.7,7.601c2.3,0,4.5-0.601,6.399-1.601l-0.6-2.3
		c-1.8,0.6-3.6,0.9-5,0.9c-2.2,0-3.4-1.2-3.4-4v-0.2h9.101C274.5,10.6,271.9,8.4,268,8.4z M265.1,14.8c0.101-2.2,1-3.7,2.801-3.7
		c1.6,0,2.399,1.2,2.399,3.7H265.1z"/><path class="st9" d="M310.8,8.7c-4.1,0-6.8,2.6-6.8,8.1c0,5.3,2.3,7.601,6.1,7.601c4.101,0,6.801-2.5,6.801-8.101
		C316.9,11,314.6,8.7,310.8,8.7z M310.5,22.6c-2.7,0-4-1.7-4-6.399c0-3.8,1.5-5.6,3.9-5.6c2.6,0,4,1.7,4,6.4
		C314.4,20.8,312.8,22.6,310.5,22.6z"/><path class="st9" d="M335.7,8.7c-1.9,0-3.601,1.1-5.2,2.4c-0.5-1.3-1.7-2.4-3.6-2.4c-1.801,0-3.4,1-4.7,2.1L322,9h-2v15.2h2.4V12.5
		c1.3-1.1,2.6-1.8,3.6-1.8c1.7,0,2.7,1.5,2.7,5.4v8.1h2.399v-8.8c0-1.4-0.1-2.1-0.199-2.7c1.3-1.1,2.8-2,3.899-2
		c1.7,0,2.7,1.4,2.7,5.4c0,2.1-0.1,5.4-0.1,8.1h2.399c0-3,0.101-6.7,0.101-8.7C340,10.5,338.3,8.7,335.7,8.7z"/><path class="st9" d="M191.9,22.5c-2.7,0-4.2-1.5-4.2-5.3v-0.3h9.1c0.4-5.9-1.7-8.2-5.3-8.2c-3.9,0-6.2,3-6.2,8.3
		c0,5.4,2.5,7.4,6.101,7.4c2.1,0,4-0.601,5.5-1.4l-0.5-1.5C194.8,22.1,193.3,22.5,191.9,22.5z M191.3,10.4c2.2,0,3.2,1.7,3.2,4.8
		h-6.8C187.9,12.5,189,10.4,191.3,10.4z"/><path class="st9" d="M216.4,8.4c-1.801,0-3.4,0.9-4.9,2.2c-0.6-1.3-1.8-2.2-3.7-2.2c-1.8,0-3.3,0.8-4.5,2L203,8.8h-3.3v15.4h4V12.9
		c1-0.8,2-1.3,2.8-1.3c1.3,0,2,0.9,2,4.5v8h3.9V15.2c0-1.1-0.101-1.8-0.2-2.3c1-0.8,2.1-1.4,2.899-1.4c1.301,0,2,0.8,2,4.5
		c0,1.8-0.1,4.9-0.1,8h3.9c0-3.4,0.1-6.9,0.1-8.8C221,10.4,219.4,8.4,216.4,8.4z"/><path class="st9" d="M177.7,8.7c-1.8,0-3.3,0.9-4.6,1.9V6h-2.4v18.2h2.4V12.5c1.3-1.2,2.7-1.8,3.7-1.8c1.9,0,2.9,1.4,2.9,5.4
		c0,1.9-0.101,5.2-0.101,8.1h2.4c0-3.2,0.1-6.9,0.1-8.7C182.2,10.4,180.5,8.7,177.7,8.7z"/><path class="st9" d="M242.1,11.2l-0.3-2.4h-3.3v15.4h4v-9.8c1.4-1.7,2.1-2.3,3-2.3c0.3,0,0.7,0,1.4,0.2l0.5-3.5
		c-0.5-0.2-1-0.3-1.5-0.3C244.7,8.5,243.7,9.1,242.1,11.2z"/><path class="st9" d="M229.8,8.4c-2.3,0-4.399,0.6-6.2,1.4l0.5,2.4c1.4-0.5,3.101-0.9,4.7-0.9c2,0,2.9,0.8,2.9,2.3v1.2h-1
		c-5.4,0-7.9,2.1-7.9,5.3c0,2.9,1.7,4.4,4.8,4.4c2,0,3.4-0.8,4.7-1.9l0.3,1.601h3v-11C235.6,10.3,233.7,8.4,229.8,8.4z M231.7,20.3
		c-1,0.8-2,1.3-2.9,1.3c-1.399,0-2.1-0.8-2.1-2c0-1.4,0.899-2.4,3.8-2.4h1.2V20.3z"/><polygon class="st9" points="261,8.8 256.5,8.8 252.8,15 252.7,15 252.7,6 248.7,6 248.7,24.2 252.7,24.2 252.7,16.6 252.8,16.6 
		256.9,24.2 261.5,24.2 256.4,15.3 	"/></g></svg>