<?xml version="1.0" encoding="utf-8"?>
<!-- Generator: Adobe Illustrator 16.0.4, SVG Export Plug-In . SVG Version: 6.00 Build 0)  -->
<!DOCTYPE svg PUBLIC "-//W3C//DTD SVG 1.1//EN" "http://www.w3.org/Graphics/SVG/1.1/DTD/svg11.dtd">
<svg version="1.1" id="Layer_1" xmlns="http://www.w3.org/2000/svg" xmlns:xlink="http://www.w3.org/1999/xlink" x="0px" y="0px"
	 width="850px" height="150px" viewBox="0 0 850 150" enable-background="new 0 0 850 150" xml:space="preserve">
<g>
	<path fill="#FFFFFF" d="M118.711,15.083h-5.402c-0.25,0-0.583,0.087-0.583,0.332c0,0.256,0.251,0.333,0.583,0.333h5.402
		c0.333,0,0.583-0.08,0.583-0.333C119.294,15.338,119.044,15.083,118.711,15.083z"/>
	<path fill="#FFFFFF" d="M118.46,16.251h-4.901c-0.417,0.079-0.583,0.245-0.583,0.333c0,0.15,0.101,0.24,0.25,0.282v1.376
		c0,0.5,0.328,0.833,0.83,0.833h3.91c0.495,0,0.83-0.333,0.83-0.833v-1.376c0.148-0.042,0.25-0.132,0.25-0.282
		C119.044,16.496,118.794,16.251,118.46,16.251z"/>
	<path fill="#FFFFFF" d="M116.469,10.265c0,0,0,0-0.084,0c0,0-0.083,0.088-0.25,0.088c-0.084,0-0.084,0-0.25-0.088c0,0,0,0-0.083,0
		l-1.663-1.662v5.734h3.993V8.603L116.469,10.265z"/>
	<path fill="#FFFFFF" d="M122.867,6.94c0.084-3.822-2.992-6.898-6.814-6.898c-3.577,0-6.653,3.077-6.653,6.898
		c0,2.246,1.085,4.327,2.831,5.572c-0.083,0.245-0.25,0.501-0.25,0.746c0,0.579,0.496,1.08,1.08,1.08h0.416V7.773
		c0-0.084,0.167-0.25,0.167-0.25h0.495c0.086,0,0.086,0.084,0.086,0.25l1.912,1.909c0,0,1.746-1.825,1.831-1.909
		c0-0.084,0.083-0.25,0.083-0.25h0.496c0.084,0,0.167,0.084,0.167,0.25v6.564h0.334c0.583,0,1.08-0.5,1.08-1.08
		c0-0.246-0.083-0.501-0.25-0.58C121.62,11.345,122.867,9.353,122.867,6.94z"/>
</g>
<path fill="#FFFFFF" d="M143.902,8.504h3.574c0.475,0,0.952,0.351,0.952,0.833v1.31c0,0.472-0.355,0.836-0.952,0.836h-3.574
	c-0.476,0-0.951-0.365-0.951-0.836v-1.31C143.068,8.854,143.426,8.504,143.902,8.504z M153.909,0.875
	c-0.713,0-1.31,0.479-1.31,1.195l-2.026-1.437c-0.477-0.468-0.834-0.59-1.194-0.59c-0.355,0-0.711,0.122-1.189,0.59l-9.056,6.079
	c0,0-0.831,1.792,0.718,1.792h0.476v8.813c0,0.952,0.832,1.784,1.785,1.784h1.313v-4.403c0-0.48,0.355-0.837,0.952-0.837h2.742
	c0.478,0,0.954,0.357,0.954,0.837v4.403h8.576c0.952,0,1.79-0.834,1.79-1.784V8.504h0.478c1.549,0,0.712-1.792,0.712-1.792
	l-2.503-1.426V2.309c0-0.721-0.594-1.312-1.306-1.312L153.909,0.875L153.909,0.875z M151.647,8.504h3.218
	c0.477,0,0.954,0.351,0.954,0.833v1.31c0,0.472-0.359,0.836-0.954,0.836h-3.218c-0.476,0-0.951-0.365-0.951-0.836v-1.31
	C150.696,8.854,151.17,8.504,151.647,8.504z M151.647,13.744h3.218c0.477,0,0.954,0.353,0.954,0.837v1.306
	c0,0.477-0.359,0.838-0.954,0.838h-3.218c-0.476,0-0.951-0.361-0.951-0.838v-1.306C150.696,14.218,151.17,13.744,151.647,13.744z"/>
<path fill="#FFFFFF" d="M178.937,3.614c0,1.909,1.667,3.579,3.693,3.579c2.024,0,3.694-1.552,3.694-3.579
	c0-1.909-1.669-3.57-3.694-3.57C180.605,0.043,178.937,1.587,178.937,3.614z M176.912,18.868v-4.41c0,0,0.835,0.357,0.835,1.663
	v2.98h9.77v-2.98c0-1.306,0.833-1.663,0.833-1.663v4.41h1.428v-6.555c-1.903-4.413-7.147-4.05-7.147-4.05s-5.123-0.242-7.148,4.05
	v6.555H176.912z M179.177,13.978c0,0-0.596-2.143,1.428-2.495c1.074-0.122,1.671,0.235,1.907,0.71
	c0.36-0.359,0.836-0.832,1.908-0.71c2.027,0.235,1.431,2.495,1.431,2.495s-0.597,1.554-3.339,3.458l0,0l0,0l0,0l0,0
	C179.891,15.533,179.177,13.978,179.177,13.978z"/>
<path fill="#FFFFFF" d="M256.067,0.323c0.474-0.469,1.901-0.353,2.256,0.363c0.237,0.473,0.594,1.545,0.237,1.896
	c-1.425,1.548-3.325,3.565-4.752,5.114c0.833,3.323,1.662,6.302,2.496,9.628c-0.475,0.59-1.069,1.189-1.663,1.778
	c-1.427-2.844-3.209-5.104-4.636-7.959c-0.95,1.066-1.9,1.55-2.853,2.615c-0.119,0.122-0.356,0.357-0.235,0.591
	c0.117,0.838-0.358,1.667-0.239,2.377c-0.475,0.479-0.833,0.954-1.307,1.305c-0.477-1.069-0.477-2.135-1.071-3.084
	c-0.948-0.599-2.376-0.599-3.325-1.067c0.474-0.482,0.828-0.836,1.188-1.311c0.829,0,2.136-0.238,3.088-0.238
	c1.072-1.188,1.666-2.735,2.734-3.923c-2.615-1.54-5.822-2.494-8.439-4.035c0.594-0.601,1.07-1.671,1.665-2.257
	c3.208,0.948,6.895,2.257,10.221,3.205C252.62,3.888,254.641,1.874,256.067,0.323z"/>
<path fill="#FFFFFF" d="M208.838,4.51c0.359-1.675,0.955-1.911,2.032-2.63c1.675-1.198,2.391,0.719,2.391,2.63
	c0,1.91-1.073,3.586-2.391,3.586C209.554,8.095,208.477,6.419,208.838,4.51z M214.819,3.556c0.358-1.676,1.792-2.875,2.99-3.352
	c1.911-0.72,2.869,1.072,2.27,2.988c-0.716,1.919-2.629,4.065-3.828,3.469C214.936,6.068,214.34,5.464,214.819,3.556z
	 M219.124,7.023c0.838-1.914,2.75-2.396,4.064-2.75c2.154-0.484,2.872,1.672,1.674,3.467c-0.594,0.838-3.945,2.984-5.26,2.269
	C218.647,9.537,218.404,8.698,219.124,7.023z M218.525,13.723c0.716-1.675,2.391-2.161,3.468-2.511
	c1.795-0.487,2.512,1.55,1.437,3.104c-0.477,0.714-3.351,2.755-4.548,2.036C218.168,15.986,217.926,15.273,218.525,13.723z
	 M206.684,10.725c0.359-0.716,6.098-2.027,7.774-1.909c0.36,0,2.153,0.117,2.748,2.989c0.125,0.596,0,5.141-0.356,5.505
	c-0.239,0.474-1.554,1.675-3.111,1.792c-1.911,0.117-2.631-3.585-2.631-3.585s-2.27-0.487-3.945-1.325
	C206.208,13.841,206.084,12.283,206.684,10.725z"/>
<path fill="#FFFFFF" d="M87.527,9.978c-1.327,0.357-1.687,2.413-0.362,3.141c1.09,0.723,2.776,0,2.776-1.333
	C90.064,10.705,88.734,9.614,87.527,9.978z M77.388,9.978c-1.328,0.24-1.81,2.169-0.723,3.016c0.964,0.965,2.776,0.361,3.019-0.963
	C79.925,10.939,78.594,9.614,77.388,9.978z M76.304,3.575c-0.604,1.453-1.33,2.783-1.569,4.346c2.049,0.124,12.915,0.124,16.295,0
	c-0.365-1.443-0.968-2.65-1.451-3.975c-0.244-0.487-0.36-1.092-0.847-1.454c-0.604-0.479-1.326-0.358-1.929-0.358
	c-2.897,0-5.913,0-8.814,0C77.149,2.133,76.546,2.854,76.304,3.575z M75.7,2.615c0.481-0.969,1.688-1.454,2.776-1.454
	c3.019,0,5.913,0,8.812,0c1.206,0,2.413,0.603,2.896,1.693c0.722,1.325,1.208,2.778,1.812,4.107
	c0.481,0.958,1.325,1.686,1.568,2.769c0.243,1.092,0.243,2.3,0,3.507c-0.244,0.963-1.327,1.442-1.812,2.295
	c-0.119,0.726-0.119,1.446-0.242,2.05c-0.362,0.485-2.653,0.485-3.138,0.237c-0.36-0.605-0.243-1.932-1.325-1.932
	c-2.054-0.117-7.851-0.117-8.815,0.121c-0.604,0.482-0.48,1.333-1.084,1.812c-0.967,0.248-2.173,0.248-3.016-0.237
	c-0.124-0.846,0.239-1.929-0.487-2.532c-0.604-0.726-1.446-1.208-1.568-2.3c-0.119-1.441-0.119-3.136,0.848-4.345
	C74.248,6.714,74.612,4.549,75.7,2.615z"/>
<path fill="#FFFFFF" d="M284.641,3.619c1.188,0,2.498,0,3.688,0.122c0.355,0,1.669,1.9,2.499,2.972c0.12,0.12,0,0.483-0.594,0.483
	c-1.904,0-3.692,0-5.592,0C284.519,7.074,284.641,4.811,284.641,3.619z M290.947,11.718c1.429,0,2.622,1.071,2.739,2.494
	c0.356,0,0.596-0.117,0.953-0.117c0.235,0,0.592-0.351,0.592-0.955c0-1.188,0-2.376,0-3.565c0-0.481-0.474-1.071-0.712-1.188
	c-0.715-0.604-1.429-1.071-2.143-1.674c-1.071-1.306-2.023-2.731-3.212-3.923c-0.358-0.364-0.834-0.364-1.31-0.364h-17.024
	c-0.236,0-0.833,0.364-0.833,0.837c0,2.618,0,5.357,0,7.977c-0.119,0-0.473,0.119-0.473,0.596c0,0.474,0,0.836,0,1.424
	c0,0.953,0.473,0.835,0.83,0.953c0.597,0.12,1.311,0.12,1.906,0.24l0,0c0-1.428,1.191-2.616,2.74-2.616
	c1.543,0,2.736,1.188,2.736,2.616c0,0.122,0,0.242,0,0.242c2.501,0,8.57,0,10.594,0c0-0.121,0-0.242,0-0.242
	C288.211,12.907,289.4,11.718,290.947,11.718z M272.613,14.452c0,1.313,1.073,2.263,2.265,2.263c1.308,0,2.262-1.07,2.262-2.263
	c0-1.312-1.07-2.263-2.262-2.263C273.686,12.189,272.613,13.14,272.613,14.452z M273.805,14.452c0-0.59,0.476-1.071,1.072-1.071
	c0.594,0,1.071,0.481,1.071,1.071c0,0.598-0.477,1.071-1.071,1.071C274.282,15.522,273.805,15.05,273.805,14.452z M288.683,14.452
	c0,1.313,1.072,2.263,2.263,2.263c1.312,0,2.262-1.07,2.262-2.263c0-1.312-1.07-2.263-2.262-2.263
	C289.636,12.189,288.683,13.14,288.683,14.452z M289.874,14.452c0-0.59,0.477-1.071,1.071-1.071c0.596,0,1.07,0.481,1.07,1.071
	c0,0.598-0.474,1.071-1.07,1.071C290.352,15.522,289.874,15.05,289.874,14.452z"/>
<path fill="#FFFFFF" d="M53.568,13.026c0,2.352,1.939,4.295,4.292,4.295c2.432,0,4.53-2.055,4.406-4.517
	c-0.124-2.476-2.26-4.094-4.633-4.067c-0.604,0.008-0.86,0.271-1.202-0.24c-0.039-0.059-0.243-0.281-0.239-0.356
	c0.171-0.237,0.415-0.435,0.719-0.444c0.675-0.02,0.699,0.783,1.309,0.686c-0.215-0.638-0.357-0.661,0.249-0.96
	c0.484-0.241,1.081-0.853,1.108-1.412c0.017-0.355-0.453-0.884-0.747-1.06c-0.298-0.178-0.616-0.083-0.885-0.284
	c-0.16-0.12-0.054-0.266,0.028-0.398c0.184-0.292,0.104-0.321-0.113-0.538c-1.1-1.09-2.478-1.845-4.052-1.91
	c-0.399-0.016-1.485-0.062-1.79,0.242c-0.267,0.27-0.594,0.374-0.596,0.831c-0.002,0.583,0.313,0.603,0.776,0.603
	c0.815,0,1.62,0.06,2.386,0.38c0.372,0.157,0.455,0.438,0.875,0.517c0.479,0.09,0.251,0.895,0.043,1.125
	c-0.2,0.222-0.772,0.157-1.057,0.143c-0.352-0.017-0.626-0.329-0.939-0.463c-0.815-0.347-1.731-0.449-2.612-0.444
	c-1.589,0.008-2.838,1.047-3.723,2.304c-0.091,0.129-0.291,0.608-0.455,0.608c-0.367,0-0.73-0.346-1.057-0.51
	c-0.937-0.475-2.059-0.939-3.125-0.917c-1.365,0.029-2.91,0.187-4.136,0.851c-0.585,0.317-1.239,0.529-1.324,1.207
	c-0.021,0.162-0.128,0.469-0.034,0.613c0.145,0.221,0.254,0.405,0.319,0.664c0.27-0.283,0.627-0.498,0.951-0.713
	c0.38-0.258,0.338-0.27,0.61,0.058c0.416,0.501,0.392,0.39,0.941,0.053c-0.197-0.196-0.396-0.393-0.594-0.589
	c1.571-0.786,3.392-1.046,5.007-0.242c-0.167,0.223-0.333,0.444-0.501,0.666c-0.245,0.327-0.206,0.3,0.023,0.651
	c0.168-0.242,0.338-0.483,0.507-0.726c0.318-0.456,0.273-0.553,0.79-0.176c0.561,0.408,1.185,0.911,1.23,1.626
	c0.026,0.389,0.05,0.778,0.077,1.167c0.029,0.446-0.151,0.075-0.339,0.369c-0.226,0.355-0.092,1.357-0.121,1.791
	c1.87,0,3.738,0,5.607,0c0.153,0,0.417-1.667,0.539-1.979c0.292-0.752,0.725-1.438,1.229-2.063c0.434-0.54,0.713-0.953,1.476-0.873
	c0.659,0.069,0.721,0.201,1.047,0.744C54.506,10.056,53.568,11.501,53.568,13.026C53.568,15.417,53.568,11.483,53.568,13.026z
	 M55.241,13.026c0-0.928,0.561-1.893,1.429-2.262c0.162,0.287,1.117,2.366,1.721,1.945c0.642-0.447-0.65-1.901-0.889-2.297
	c1.114,0,2.145,0.363,2.746,1.365c0.561,0.937,0.424,2.138-0.293,2.953C58.357,16.538,55.241,15.479,55.241,13.026
	C55.241,12.072,55.241,14.582,55.241,13.026z M45.463,12.79c0,0.275,0.007,0.584-0.119,0.837c0.717-0.351,0.656-2.001-0.118-2.265
	C45.343,11.829,45.463,12.304,45.463,12.79z M41.769,12.438c0,0.487-0.188,0.896,0.309,1.044c0.286,0.086,0.572,0.17,0.858,0.256
	c0.09,0.026,0.111,0.612,0.126,0.713c0.054,0.37-0.72,0.657-1.014,0.741c-0.519,0.149-1.094,0.138-1.607-0.034
	c-0.935-0.315-1.566-1.168-1.645-2.145c-0.178-2.246,2.63-3.637,4.253-1.993c0.326,0.331,0.243,0.471,0.159,0.888
	c-0.021,0.109-0.456,0.113-0.554,0.128C42.518,12.059,41.191,12.259,41.769,12.438z M41.41,16.725c1.831,0,3.568-1.269,3.934-3.098
	c-0.154,0.153-0.808,0.225-0.842-0.063c-0.04-0.342-0.08-0.686-0.121-1.029c-0.094-0.803-0.256-1.173,0.727-1.173
	c-1.04-3.127-5.533-3.226-7.166-0.604C36.301,13.391,38.4,16.725,41.41,16.725z"/>
<path fill="#FFFFFF" d="M359.961,3.146h-22.167c-0.489,0-0.89,0.393-0.89,0.883v11.082c0,0.492,0.401,0.892,0.89,0.892h22.167
	c0.49,0,0.881-0.4,0.881-0.892V4.029C360.843,3.539,360.451,3.146,359.961,3.146z M345.628,15.111h-5.963
	c0.213-0.237,0.346-0.544,0.346-0.88c0-0.741-0.599-1.333-1.331-1.333c-0.339,0-0.651,0.129-0.884,0.34V5.903
	c0.233,0.211,0.545,0.34,0.884,0.34c0.732,0,1.331-0.587,1.331-1.325c0-0.345-0.133-0.652-0.346-0.889h5.963
	c-1.898,1.124-3.179,3.18-3.179,5.546C342.449,11.933,343.73,13.998,345.628,15.111z M351.209,13.208h-4.63v-0.92
	c0.714-0.746,0.914-1.375,0.815-2.323h-0.909V9.019h0.74c-0.083-0.327-0.18-0.768-0.18-1.196c0-1.462,0.848-2.085,2.172-2.085
	c0.646,0,1.344,0.188,1.841,0.448l-0.145,0.765c-0.513-0.127-0.943-0.175-1.27-0.175c-0.904,0-1.114,0.373-1.114,1.022
	c0,0.424,0.098,0.806,0.187,1.222h1.747v0.947h-1.619c0.077,0.9-0.029,1.524-0.6,2.125h2.966v1.119H351.209z M359.961,13.239
	c-0.235-0.21-0.544-0.341-0.893-0.341c-0.73,0-1.325,0.592-1.325,1.333c0,0.335,0.135,0.642,0.346,0.881h-5.968
	c1.901-1.115,3.185-3.179,3.185-5.536c0-2.367-1.284-4.423-3.185-5.546h5.968c-0.211,0.237-0.346,0.544-0.346,0.889
	c0,0.738,0.594,1.326,1.325,1.326c0.349,0,0.658-0.13,0.893-0.341V13.239z"/>
<g>
	<g>
		<path fill="#FFFFFF" d="M326.488,1.315h-21.724c-0.738,0-1.33,0.598-1.33,1.328v1.964h24.378V2.643
			C327.814,1.913,327.222,1.315,326.488,1.315z M303.435,16.499c0,0.732,0.592,1.333,1.33,1.333h21.724
			c0.735,0,1.326-0.601,1.326-1.333V7.858h-24.378L303.435,16.499L303.435,16.499z M310.566,13.285h7.533v0.439h-7.533V13.285z
			 M306.13,13.285h3.102v0.439h-3.102V13.285z"/>
	</g>
</g>
<path fill="#FFFFFF" d="M378.464,3.615c0,1.913,1.662,3.575,3.656,3.575c1.996,0,3.658-1.578,3.658-3.575
	c0-1.912-1.662-3.574-3.658-3.574C380.126,0.042,378.464,1.621,378.464,3.615z M376.385,18.827v-4.406c0,0,0.831,0.333,0.831,1.662
	v2.994h9.809v-2.994c0-1.33,0.831-1.662,0.831-1.662v4.406h1.413v-6.566c-1.913-4.405-7.15-4.073-7.15-4.073
	s-5.153-0.25-7.149,4.073v6.566H376.385L376.385,18.827z"/>
<path fill="#FFFFFF" d="M420.83,8.192v-2.73c0-3.005-2.458-5.461-5.46-5.461c-3.003,0-5.461,2.457-5.461,5.461v2.73h-1.366v10.926
	h13.654V8.192H420.83z M416.735,17.071h-2.731l0.546-3.619c-0.546-0.276-0.888-0.822-0.888-1.505c0-0.956,0.751-1.709,1.708-1.709
	c0.957,0,1.709,0.751,1.709,1.709c0,0.614-0.341,1.161-0.888,1.505L416.735,17.071z M418.782,8.192h-6.827v-2.73
	c0-1.911,1.5-3.414,3.411-3.414c1.915,0,3.415,1.504,3.415,3.414L418.782,8.192L418.782,8.192z"/>
<g>
	<g>
		<path fill="#FFFFFF" d="M437.813,5.236v10.432c0,1.034,0.845,1.88,1.877,1.88h17.855c1.033,0,1.879-0.846,1.879-1.88V5.143
			l-10.806,7.093L437.813,5.236z M459.424,3.45c0-1.033-0.846-1.88-1.879-1.88H439.69c-1.032,0-1.877,0.847-1.877,1.88l10.806,6.767
			L459.424,3.45z"/>
	</g>
</g>
<path fill="#FFFFFF" d="M3.591,10.419l8.833-6.5l8.833,6.166v10.334h-6.833v-6h-4v6H3.591V10.419z M12.442,0L6.258,4.529V1.252
	H2.591v5.962L0,9.113l1.182,1.613l11.225-8.221l10.571,8.203l1.227-1.58L12.442,0z"/>
</svg>
